<svg width="1024" height="1024" viewBox="0 0 1024 1024" fill="none" xmlns="http://www.w3.org/2000/svg">
<rect x="332" y="211" width="307" height="527" fill="#252525"/>
<mask id="path-2-outside-1_131_428" maskUnits="userSpaceOnUse" x="305.663" y="202.53" width="476" height="701" fill="black">
<rect fill="white" x="305.663" y="202.53" width="476" height="701"/>
<path d="M706.338 232.53C731.19 232.531 751.338 252.678 751.338 277.53V827.749C751.338 852.602 731.19 872.749 706.338 872.749H380.663C355.81 872.749 335.663 852.602 335.663 827.749V816.545H632.826C673.143 816.545 705.826 783.861 705.826 743.545V232.53H706.338Z"/>
</mask>
<path d="M706.338 232.53C731.19 232.531 751.338 252.678 751.338 277.53V827.749C751.338 852.602 731.19 872.749 706.338 872.749H380.663C355.81 872.749 335.663 852.602 335.663 827.749V816.545H632.826C673.143 816.545 705.826 783.861 705.826 743.545V232.53H706.338Z" fill="#E4A334"/>
<path d="M706.338 232.53L706.338 202.53H706.338V232.53ZM751.338 827.749H781.338H751.338ZM706.338 872.749V902.749H706.338L706.338 872.749ZM335.663 816.545V786.545H305.663V816.545H335.663ZM632.826 816.545V846.545H632.826L632.826 816.545ZM705.826 743.545L735.826 743.545V743.545H705.826ZM705.826 232.53V202.53H675.826V232.53H705.826ZM706.338 232.53L706.338 262.53C714.622 262.53 721.338 269.246 721.338 277.53H751.338H781.338C781.338 236.109 747.759 202.531 706.338 202.53L706.338 232.53ZM751.338 277.53H721.338V827.749H751.338H781.338V277.53H751.338ZM751.338 827.749H721.338C721.338 836.033 714.622 842.749 706.338 842.749L706.338 872.749L706.338 902.749C747.759 902.749 781.338 869.17 781.338 827.749H751.338ZM706.338 872.749V842.749H380.663V872.749V902.749H706.338V872.749ZM380.663 872.749V842.749C372.379 842.749 365.663 836.033 365.663 827.749H335.663H305.663C305.663 869.17 339.242 902.749 380.663 902.749V872.749ZM335.663 827.749H365.663V816.545H335.663H305.663V827.749H335.663ZM335.663 816.545V846.545H632.826V816.545V786.545H335.663V816.545ZM632.826 816.545L632.826 846.545C689.711 846.545 735.826 800.43 735.826 743.545L705.826 743.545L675.826 743.545C675.826 767.293 656.574 786.545 632.826 786.545L632.826 816.545ZM705.826 743.545H735.826V232.53H705.826H675.826V743.545H705.826ZM705.826 232.53V262.53H706.338V232.53V202.53H705.826V232.53Z" fill="#252525" mask="url(#path-2-outside-1_131_428)"/>
<path d="M508.864 494.147C508.575 483.269 508.142 472.535 507.565 461.944C506.988 451.067 506.266 440.333 505.401 429.742C505.112 426.02 504.391 420.725 503.236 413.855C502.082 406.985 500.495 400.115 498.475 393.245C496.455 386.089 493.713 380.078 490.25 375.212C486.788 370.059 482.459 367.483 477.265 367.483C472.07 367.483 467.309 368.199 462.98 369.63C458.94 371.061 454.9 373.351 450.86 376.5C441.626 382.797 433.546 391.528 426.62 402.691C419.694 413.569 413.922 425.734 409.305 439.188C404.688 452.355 401.225 465.665 398.917 479.119C396.608 492.286 395.454 504.165 395.454 514.756C395.454 521.913 396.608 529.927 398.917 538.801C401.514 547.388 405.554 554.831 411.037 561.128C416.52 567.426 423.734 570.574 432.68 570.574C440.76 570.574 448.551 567.855 456.054 562.416C463.846 556.978 471.06 550.108 477.698 541.807C484.335 533.506 490.25 525.061 495.445 516.474C500.928 507.887 505.401 500.444 508.864 494.147ZM603.228 555.546C603.228 557.264 602.362 559.268 600.63 561.558C594.57 569 587.644 575.297 579.853 580.45C572.061 585.316 563.116 587.749 553.016 587.749C546.378 587.749 540.751 585.602 536.134 581.309C531.517 577.015 527.621 571.576 524.447 564.993C521.561 558.409 519.252 551.825 517.521 545.242C516.078 538.372 514.924 532.361 514.058 527.208C506.555 537.799 498.475 547.675 489.818 556.835C481.16 565.994 471.349 573.437 460.383 579.162C449.706 584.6 437.297 587.32 423.157 587.32C408.44 587.32 396.175 583.742 386.364 576.585C376.841 569.429 369.771 559.983 365.153 548.247C360.536 536.511 358.228 524.059 358.228 510.892C358.228 494.29 360.969 476.972 366.452 458.939C372.223 440.905 380.448 424.16 391.125 408.703C401.802 393.245 414.644 380.794 429.65 371.348C444.944 361.615 462.114 356.749 481.16 356.749C492.415 356.749 501.505 360.041 508.431 366.624C515.356 372.922 520.551 380.937 524.014 390.669C527.765 400.401 530.362 410.563 531.805 421.154C533.537 431.745 534.547 441.191 534.835 449.493C540.03 434.322 544.791 419.007 549.12 403.55C553.448 388.093 557.633 372.636 561.673 357.178L591.973 365.766C585.047 387.52 577.112 408.846 568.166 429.742C559.22 450.637 549.12 470.961 537.865 490.712C538.154 495.006 538.587 501.446 539.164 510.033C540.03 518.335 541.328 527.065 543.06 536.225C545.08 545.385 547.965 553.257 551.717 559.84C555.468 566.138 560.374 569.286 566.434 569.286C571.917 569.286 576.823 567.712 581.152 564.563C585.769 561.414 589.664 558.266 592.839 555.117C596.013 551.682 598.033 549.965 598.899 549.965C600.342 549.965 601.352 550.537 601.929 551.682C602.795 552.827 603.228 554.115 603.228 555.546Z" fill="#E4A334"/>
<mask id="path-5-outside-2_131_428" maskUnits="userSpaceOnUse" x="243" y="122" width="476" height="701" fill="black">
<rect fill="white" x="243" y="122" width="476" height="701"/>
<path d="M643.675 152C668.528 152 688.675 172.147 688.675 197V747.219C688.675 772.072 668.528 792.219 643.675 792.219H318C293.147 792.219 273 772.071 273 747.219V197C273 172.147 293.147 152 318 152H643.675ZM346.425 189.424C326.543 189.424 310.425 205.542 310.425 225.424V720.132C310.425 740.014 326.543 756.132 346.425 756.132H616.588C636.47 756.132 652.588 740.014 652.588 720.132V225.424C652.588 205.542 636.47 189.424 616.588 189.424H346.425Z"/>
</mask>
<path d="M643.675 152C668.528 152 688.675 172.147 688.675 197V747.219C688.675 772.072 668.528 792.219 643.675 792.219H318C293.147 792.219 273 772.071 273 747.219V197C273 172.147 293.147 152 318 152H643.675ZM346.425 189.424C326.543 189.424 310.425 205.542 310.425 225.424V720.132C310.425 740.014 326.543 756.132 346.425 756.132H616.588C636.47 756.132 652.588 740.014 652.588 720.132V225.424C652.588 205.542 636.47 189.424 616.588 189.424H346.425Z" fill="#E4A334"/>
<path d="M318 792.219L318 822.219H318V792.219ZM273 197L243 197V197H273ZM318 152V122H318L318 152ZM310.425 225.424L280.425 225.424V225.424H310.425ZM310.425 720.132H280.425V720.132L310.425 720.132ZM616.588 756.132V786.132H616.588L616.588 756.132ZM652.588 720.132L682.588 720.132V720.132H652.588ZM652.588 225.424H682.588V225.424L652.588 225.424ZM616.588 189.424L616.588 159.424H616.588V189.424ZM643.675 152V182C651.959 182 658.675 188.716 658.675 197H688.675H718.675C718.675 155.579 685.096 122 643.675 122V152ZM688.675 197H658.675V747.219H688.675H718.675V197H688.675ZM688.675 747.219H658.675C658.675 755.503 651.959 762.219 643.675 762.219V792.219V822.219C685.096 822.219 718.675 788.64 718.675 747.219H688.675ZM643.675 792.219V762.219H318V792.219V822.219H643.675V792.219ZM318 792.219L318 762.219C309.716 762.219 303 755.503 303 747.219H273H243C243 788.64 276.579 822.218 318 822.219L318 792.219ZM273 747.219H303V197H273H243V747.219H273ZM273 197L303 197C303 188.716 309.716 182 318 182L318 152L318 122C276.579 122 243 155.579 243 197L273 197ZM318 152V182H643.675V152V122H318V152ZM346.425 189.424V159.424C309.974 159.424 280.425 188.973 280.425 225.424L310.425 225.424L340.425 225.424C340.425 222.11 343.111 219.424 346.425 219.424V189.424ZM310.425 225.424H280.425V720.132H310.425H340.425V225.424H310.425ZM310.425 720.132L280.425 720.132C280.425 756.582 309.974 786.132 346.425 786.132V756.132V726.132C343.111 726.132 340.425 723.446 340.425 720.132L310.425 720.132ZM346.425 756.132V786.132H616.588V756.132V726.132H346.425V756.132ZM616.588 756.132L616.588 786.132C653.038 786.132 682.588 756.582 682.588 720.132L652.588 720.132L622.588 720.132C622.588 723.445 619.901 726.132 616.588 726.132L616.588 756.132ZM652.588 720.132H682.588V225.424H652.588H622.588V720.132H652.588ZM652.588 225.424L682.588 225.424C682.588 188.973 653.038 159.424 616.588 159.424L616.588 189.424L616.588 219.424C619.901 219.424 622.588 222.11 622.588 225.424L652.588 225.424ZM616.588 189.424V159.424H346.425V189.424V219.424H616.588V189.424Z" fill="#252525" mask="url(#path-5-outside-2_131_428)"/>
</svg>